<?xml version="1.0" encoding="utf-8"?>
<!-- Generator: Adobe Illustrator 16.0.0, SVG Export Plug-In . SVG Version: 6.00 Build 0)  -->
<!DOCTYPE svg PUBLIC "-//W3C//DTD SVG 1.1//EN" "http://www.w3.org/Graphics/SVG/1.1/DTD/svg11.dtd">
<svg version="1.1" id="Layer_1" xmlns="http://www.w3.org/2000/svg" xmlns:xlink="http://www.w3.org/1999/xlink" x="0px" y="0px"
	 width="170px" height="60px" viewBox="0 0 170 60" enable-background="new 0 0 170 60" xml:space="preserve">
<g>
	<g>
		<polygon fill="#FFFFFF" points="97.779,37.83 104.738,37.83 105.473,8.552 105.475,8.462 96.707,8.462 97.777,37.745 		"/>
		<path fill="#FFFFFF" d="M101.34,42.034c-2.512,0-4.334,1.721-4.334,4.094c0.064,2.482,1.781,4.149,4.273,4.149
			c2.477,0,4.273-1.746,4.273-4.152C105.553,43.794,103.742,42.034,101.34,42.034z"/>
		<path fill="#FFFFFF" d="M20.973,34.036h-0.184c-1.456,2.55-4.918,4.435-9.049,4.435c-4.68,0-10.938-2.247-10.938-9.052
			c0-8.685,10.938-9.902,20.05-9.902V18.79c0-3.585-3.039-5.347-6.685-5.347c-3.098,0-6.074,1.459-7.958,3.341l-3.766-4.434
			c3.279-3.036,7.897-4.616,12.331-4.616c10.449,0,13.001,6.44,13.001,12.272v17.737h-6.804V34.036z M20.852,24.438h-1.641
			c-4.617,0-11.117,0.547-11.117,4.861c0,2.793,2.612,3.643,5.103,3.643c4.982,0,7.656-2.856,7.656-7.473V24.438z"/>
		<path fill="#FFFFFF" d="M54.576,37.742h-6.925v-4.678H47.53c-1.276,2.916-4.739,5.527-9.052,5.527
			c-7.594,0-10.755-5.832-10.755-11.783V8.583h7.293v16.16c0,3.463,0.787,7.774,5.465,7.774c4.617,0,6.804-4.006,6.804-7.894V8.583
			h7.291V37.742z"/>
		<path fill="#FFFFFF" d="M75.915,16.663c-1.155-1.64-3.645-2.856-6.015-2.856c-5.346,0-8.019,4.801-8.019,9.355
			c0,4.556,2.734,9.355,8.264,9.355c2.247,0,4.736-0.911,6.134-2.613l4.558,4.617c-2.431,2.613-6.44,4.071-10.753,4.071
			c-8.626,0-15.794-5.711-15.794-15.43c0-9.476,7.046-15.429,15.611-15.429c4.254,0,8.688,1.701,10.997,4.556L75.915,16.663z"/>
		<path fill="#FFFFFF" d="M122.611,7.733c8.809,0,15.854,6.135,15.854,15.308s-7.045,15.551-15.854,15.551
			c-8.811,0-15.855-6.378-15.855-15.551S113.801,7.733,122.611,7.733z M122.611,32.517c5.771,0,8.443-4.919,8.443-9.476
			c0-4.555-2.672-9.355-8.443-9.355s-8.445,4.8-8.445,9.355C114.166,27.597,116.84,32.517,122.611,32.517z"/>
		<path fill="#FFFFFF" d="M94.326,14.415l-0.234-5.832h-7.029V0.138h-7.167v7.349h0.024v8.801h-0.024v11.735
			c0,5.588,1.76,10.328,9.478,10.328c1.639,0,3.582-0.306,5.756-0.92l-0.246-5.712c-1.744,0.554-3.02,0.736-3.99,0.736
			c-3.221,0-3.83-1.881-3.83-4.494V14.415H94.326z"/>
		<path fill="#FFFFFF" d="M137.342,8.583h6.93v4.677h0.121c1.275-2.917,4.738-5.527,9.051-5.527c7.594,0,10.752,5.832,10.752,11.784
			v18.225h-7.289v-16.16c0-3.463-0.791-7.776-5.467-7.776c-4.619,0-6.807,4.008-6.807,7.897v16.039h-7.291V8.583z"/>
		<path fill="#FFFFFF" d="M122.055,58.805c-0.811,0.423-2.607,1.021-4.898,1.021c-5.143,0-8.49-3.523-8.49-8.738
			c0-5.248,3.594-9.054,9.16-9.054c1.832,0,3.453,0.458,4.299,0.881l-0.705,2.395c-0.738-0.423-1.902-0.811-3.594-0.811
			c-3.91,0-6.023,2.89-6.023,6.448c0,3.947,2.535,6.377,5.918,6.377c1.764,0,2.926-0.458,3.805-0.846L122.055,58.805z"/>
		<path fill="#FFFFFF" d="M138.441,50.808c0,6.306-4.369,9.055-8.492,9.055c-4.615,0-8.172-3.384-8.172-8.774
			c0-5.707,3.732-9.054,8.455-9.054C135.131,42.034,138.441,45.593,138.441,50.808z M124.912,50.983c0,3.735,2.148,6.553,5.18,6.553
			c2.961,0,5.18-2.782,5.18-6.624c0-2.89-1.445-6.553-5.109-6.553S124.912,47.743,124.912,50.983z"/>
		<path fill="#FFFFFF" d="M139.889,47.037c0-1.761-0.035-3.208-0.139-4.616h2.711l0.143,2.748h0.105
			c0.949-1.619,2.535-3.135,5.355-3.135c2.324,0,4.086,1.408,4.826,3.418h0.07c0.527-0.953,1.197-1.691,1.902-2.221
			c1.021-0.774,2.148-1.197,3.77-1.197c2.254,0,5.604,1.479,5.604,7.397v10.043h-3.029v-9.655c0-3.276-1.199-5.249-3.701-5.249
			c-1.76,0-3.137,1.305-3.664,2.818c-0.141,0.423-0.246,0.988-0.246,1.552v10.534h-3.031V49.256c0-2.713-1.197-4.686-3.559-4.686
			c-1.938,0-3.348,1.55-3.84,3.101c-0.176,0.459-0.248,0.986-0.248,1.517v10.287h-3.029V47.037z"/>
	</g>
	<g>
		<path fill="#FFFFFF" d="M165.012,44.587c0-0.288,0.057-0.56,0.168-0.812c0.109-0.252,0.26-0.475,0.449-0.664
			s0.41-0.341,0.664-0.45c0.254-0.11,0.523-0.165,0.812-0.165s0.561,0.055,0.812,0.165c0.254,0.109,0.475,0.261,0.664,0.45
			s0.338,0.412,0.449,0.664c0.111,0.253,0.166,0.524,0.166,0.812c0,0.289-0.055,0.558-0.166,0.813
			c-0.111,0.252-0.26,0.472-0.449,0.661s-0.41,0.341-0.664,0.451c-0.252,0.109-0.523,0.164-0.812,0.164s-0.559-0.055-0.812-0.164
			c-0.254-0.11-0.475-0.262-0.664-0.451s-0.34-0.409-0.449-0.661C165.068,45.145,165.012,44.876,165.012,44.587z M165.385,44.587
			c0,0.236,0.045,0.459,0.135,0.668c0.09,0.211,0.213,0.393,0.367,0.549c0.156,0.156,0.34,0.277,0.551,0.368
			c0.209,0.091,0.432,0.135,0.668,0.135s0.459-0.044,0.67-0.135c0.209-0.091,0.393-0.212,0.549-0.368
			c0.154-0.156,0.277-0.338,0.367-0.549c0.09-0.209,0.137-0.432,0.137-0.668s-0.047-0.461-0.137-0.67
			c-0.09-0.211-0.213-0.392-0.367-0.549c-0.156-0.153-0.34-0.277-0.549-0.368c-0.211-0.09-0.434-0.134-0.67-0.134
			s-0.459,0.044-0.668,0.134c-0.211,0.091-0.395,0.215-0.551,0.368c-0.154,0.157-0.277,0.338-0.367,0.549
			C165.43,44.126,165.385,44.351,165.385,44.587z M166.301,43.377h0.922c0.289,0,0.502,0.062,0.639,0.187
			c0.139,0.124,0.207,0.302,0.207,0.532c0,0.211-0.055,0.368-0.162,0.473c-0.109,0.106-0.244,0.167-0.406,0.187l0.617,1.014h-0.459
			l-0.598-0.98h-0.32v0.98h-0.439V43.377z M166.74,44.417h0.32c0.068,0,0.135-0.003,0.203-0.009
			c0.066-0.005,0.127-0.019,0.182-0.041c0.055-0.021,0.1-0.058,0.133-0.102s0.051-0.106,0.051-0.187c0-0.077-0.018-0.14-0.051-0.184
			c-0.033-0.047-0.078-0.08-0.133-0.102c-0.055-0.022-0.115-0.036-0.182-0.039c-0.068-0.005-0.135-0.008-0.203-0.008h-0.32V44.417z"
			/>
	</g>
</g>
</svg>
